<?xml version="1.0" encoding="utf-8"?>
<!-- Generator: Adobe Illustrator 25.0.1, SVG Export Plug-In . SVG Version: 6.00 Build 0)  -->
<svg version="1.0" id="Layer_1" xmlns="http://www.w3.org/2000/svg" xmlns:xlink="http://www.w3.org/1999/xlink" x="0px" y="0px"
	 viewBox="0 0 1376 995.6" style="enable-background:new 0 0 1376 995.6;" xml:space="preserve">
<style type="text/css">
	.st0{fill:#E40521;}
	.st1{fill:none;}
</style>
<path class="st0" d="M342,791.4V638.2h58c25.9,0,45.9,7,60,21.3c14.3,14,21.3,32.5,21.3,55.6s-7,41.8-21.1,55.6
	c-13.8,13.8-33.9,20.7-60,20.7H342z M375.9,760.6h22.2c36,0,49.2-17.4,49.2-45.5c0-14.3-3.7-25.7-11.2-33.8
	c-7.2-8.1-20-12.3-38.2-12.3h-22L375.9,760.6z M516.5,634.1c10.3,0.1,18.5,8.4,18.4,18.7c-0.1,10.3-8.4,18.5-18.7,18.4
	c-10.2-0.1-18.4-8.3-18.4-18.4c-0.1-10.2,8.1-18.6,18.3-18.7C516.3,634.1,516.4,634.1,516.5,634.1 M500.3,680.7H533v110.7h-32.8
	V680.7z M563.4,695.4c10.5-11.2,23.7-16.7,39.3-16.7c16.7,0,29.7,6.8,33,16.5v-14.5h32.8v92.3c0,25.7-4.2,42.4-19.4,54.1
	c-10.8,8.6-24.2,12.7-40.2,12.7c-21.6,0-39.6-5.3-54.3-15.6l15.6-23.7c11.2,7,22.4,10.5,34.1,10.5c9.4,0,17.1-2,22.6-5.7
	c6.4-4.4,9.7-12.5,9.7-24.2v-2.4c-4.6,7.9-17.8,13.4-33.8,13.4c-15.6,0-28.8-5.3-39.3-16c-10.3-10.8-15.6-24.2-15.6-40
	C547.8,720.1,553.1,706.4,563.4,695.4 M588.6,755.4c5.3,5.2,12.5,8.1,20,7.9c7.6,0.2,15-2.6,20.4-7.9c5.6-4.9,8.7-11.9,8.6-19.3
	c0.1-7.5-3-14.6-8.6-19.6c-5.5-5.5-12.3-8.1-20.4-8.1c-7.5-0.2-14.7,2.8-20,8.1c-5.3,5.1-8.3,12.2-8.1,19.6
	C580.3,743.4,583.3,750.4,588.6,755.4 M702.7,634.1c10.3,0.1,18.5,8.5,18.4,18.7c-0.1,10.3-8.5,18.5-18.7,18.4
	c-10.1-0.1-18.4-8.3-18.4-18.4c-0.1-10.2,8.2-18.6,18.4-18.7C702.5,634.1,702.6,634.1,702.7,634.1 M686.4,680.7h32.8v110.7h-32.7
	L686.4,680.7z M841.2,697.8l-20.7,20.5c-7.2-7.7-15.6-11.5-25.5-11.5c-16,0-28.3,12.3-28.3,29s12.5,28.8,28.3,28.8
	c9.9,0,18.3-3.7,25.5-11.4l20.7,20.4c-12.5,13.8-27.9,20.7-46.2,20.7c-17.1,0-31.7-5.5-43.5-16.7c-11.6-11.2-17.6-25.1-17.6-41.8
	s6-30.5,17.6-41.8c11.9-11.2,26.4-16.9,43.5-16.9C813.3,677.1,828.7,683.9,841.2,697.8 M848,735.8c0-17.4,5.7-31.4,16.9-42
	c11.2-10.8,25.7-16,43.1-16c16.9,0,30.5,5.5,41.1,16.3s15.8,24,15.8,40c0,3.8-0.2,7.3-0.5,10.6h-83.7c0.7,13.2,12.1,21.8,29.5,21.8
	c10.1,0.1,19.8-3.7,27-10.8l19.1,18.2C944,787,926.7,794.3,908.7,794c-18.2,0-32.8-5.3-44-15.6C853.5,767.9,848,754,848,736.7V735.8
	z M932,723.3c0-10.3-10.8-18.5-23.9-18.5c-14.3,0-26,8.1-26.8,18.5H932z M980.6,638.3h32.8v112.1c0,9.9,3.7,14.3,12.7,14.3
	c2.7,0.1,5.3-0.2,7.9-0.8v29c-3.8,1.1-9,1.5-15.6,1.5c-25.3,0-37.8-13-37.8-38.9L980.6,638.3z"/>
<path class="st0" d="M599.6,209.8c14.5,0,26.2-11.7,26.2-26.2c0-14.5-11.7-26.2-26.2-26.2c-14.5,0-26.2,11.7-26.2,26.2
	C573.4,198,585.1,209.8,599.6,209.8 M749.5,183.5c0-14.5,11.8-26.2,26.2-26.2c14.5,0,26.2,11.8,26.2,26.2
	c0,14.5-11.7,26.2-26.2,26.2C761.2,209.8,749.5,198,749.5,183.5 M783.5,321.6v52.5c0,60.8-34.9,95.6-95.8,95.6
	c-60,0-95.8-35.7-95.8-95.6v-52.6L783.5,321.6z M847.6,374.8V253.5H527.8v121.3c0,49,15.1,90.6,43.8,120.4
	c28.7,29.8,68.8,45.6,116.1,45.6S775,525,803.8,495.2S847.6,423.8,847.6,374.8"/>
<rect x="288" y="97.8" class="st1" width="800" height="800"/>
</svg>
